<svg xmlns="http://www.w3.org/2000/svg" viewBox="0 0 1051.8000000000002 1244.6" width="1051.8000000000002" height="1244.6" style="--bg:#ffffff;--fg:#1f2328;--line:#d1d9e0;--accent:#0969da;--muted:#59636e;background:var(--bg)">
<style>
  @import url('https://fonts.googleapis.com/css2?family=Inter:wght@400;500;600;700&amp;display=swap');
  text { font-family: 'Inter', system-ui, sans-serif; }
  svg {
    /* Derived from --bg and --fg (overridable via --line, --accent, etc.) */
    --_text:          var(--fg);
    --_text-sec:      var(--muted, color-mix(in srgb, var(--fg) 60%, var(--bg)));
    --_text-muted:    var(--muted, color-mix(in srgb, var(--fg) 40%, var(--bg)));
    --_text-faint:    color-mix(in srgb, var(--fg) 25%, var(--bg));
    --_line:          var(--line, color-mix(in srgb, var(--fg) 30%, var(--bg)));
    --_arrow:         var(--accent, color-mix(in srgb, var(--fg) 50%, var(--bg)));
    --_node-fill:     var(--surface, color-mix(in srgb, var(--fg) 3%, var(--bg)));
    --_node-stroke:   var(--border, color-mix(in srgb, var(--fg) 20%, var(--bg)));
    --_group-fill:    var(--bg);
    --_group-hdr:     color-mix(in srgb, var(--fg) 5%, var(--bg));
    --_inner-stroke:  color-mix(in srgb, var(--fg) 12%, var(--bg));
    --_key-badge:     color-mix(in srgb, var(--fg) 10%, var(--bg));
  }
</style>
<defs>
  <marker id="arrowhead" markerWidth="8" markerHeight="4.8" refX="8" refY="2.4" orient="auto">
    <polygon points="0 0, 8 2.4, 0 4.8" fill="var(--_arrow)" />
  </marker>
  <marker id="arrowhead-start" markerWidth="8" markerHeight="4.8" refX="0" refY="2.4" orient="auto-start-reverse">
    <polygon points="8 0, 0 2.4, 8 4.8" fill="var(--_arrow)" />
  </marker>
</defs>
<polyline points="751.4375,76 751.4375,116" fill="none" stroke="var(--_line)" stroke-width="0.75" marker-end="url(#arrowhead)" />
<polyline points="710.438610898033,324.051110898033 710.438610898033,393.55 676.325,393.55 676.325,457.07500000000005" fill="none" stroke="var(--_line)" stroke-width="0.75" marker-end="url(#arrowhead)" />
<polyline points="792.436389101967,324.051110898033 792.436389101967,393.55 826.55,393.55 826.55,422.05" fill="none" stroke="var(--_line)" stroke-width="0.75" marker-end="url(#arrowhead)" />
<polyline points="780.55561761776,482.1056176177601 780.55561761776,556.6 293.2125000000001,556.6 293.2125000000001,585.1" fill="none" stroke="var(--_line)" stroke-width="0.75" marker-end="url(#arrowhead)" />
<polyline points="259.5486685232408,643.1861685232408 259.5486685232408,705.35 88.17500000000001,705.35 88.17500000000001,904.725" fill="none" stroke="var(--_line)" stroke-width="0.75" marker-end="url(#arrowhead)" />
<polyline points="270.90681612123313,654.544316121233 270.90681612123313,705.35 222.825,705.35 222.825,904.725" fill="none" stroke="var(--_line)" stroke-width="0.75" marker-end="url(#arrowhead)" />
<polyline points="326.8730528706315,643.1894471293687 326.8730528706315,705.35 498.175,705.35 498.175,733.85" fill="none" stroke="var(--_line)" stroke-width="0.75" marker-end="url(#arrowhead)" />
<polyline points="455.3442974655402,1068.7692974655401 455.3442974655402,1140.1 434.425,1140.1 434.425,1168.6" fill="none" stroke="var(--_line)" stroke-width="0.75" marker-end="url(#arrowhead)" />
<polyline points="541.0057025344598,1068.7692974655401 541.0057025344598,1140.1 561.925,1140.1 561.925,1168.6" fill="none" stroke="var(--_line)" stroke-width="0.75" marker-end="url(#arrowhead)" />
<polyline points="829.4548478260868,525.1951521739131 829.4548478260868,556.6 831.275,556.6 831.275,585.1" fill="none" stroke="var(--_line)" stroke-width="0.75" marker-end="url(#arrowhead)" />
<polyline points="808.7017116271128,654.2767116271128 808.7017116271128,705.35 759.225,705.35 759.225,904.725" fill="none" stroke="var(--_line)" stroke-width="0.75" marker-end="url(#arrowhead)" />
<polyline points="852.2406871691915,655.8843128308085 852.2406871691915,705.35 893.875,705.35 893.875,904.725" fill="none" stroke="var(--_line)" stroke-width="0.75" marker-end="url(#arrowhead)" />
<polyline points="859.1310977772523,495.5189022227477 859.1310977772523,556.6 956.475,556.6 956.475,612.975" fill="none" stroke="var(--_line)" stroke-width="0.75" marker-end="url(#arrowhead)" />
<rect x="659.745" y="380.05" width="33.16" height="27" rx="4" ry="4" fill="var(--bg)" stroke="var(--_inner-stroke)" stroke-width="0.5" />
<text x="676.325" y="393.55" text-anchor="middle" dy="0.35em" font-size="11" font-weight="400" fill="var(--_text-muted)">yes</text>
<rect x="812.8299999999999" y="380.05" width="27.44" height="27" rx="4" ry="4" fill="var(--bg)" stroke="var(--_inner-stroke)" stroke-width="0.5" />
<text x="826.55" y="393.55" text-anchor="middle" dy="0.35em" font-size="11" font-weight="400" fill="var(--_text-muted)">no</text>
<rect x="270.9125000000001" y="543.1" width="44.6" height="27" rx="4" ry="4" fill="var(--bg)" stroke="var(--_inner-stroke)" stroke-width="0.5" />
<text x="293.2125000000001" y="556.6" text-anchor="middle" dy="0.35em" font-size="11" font-weight="400" fill="var(--_text-muted)">chunk</text>
<rect x="68.73500000000001" y="691.85" width="38.88" height="27" rx="4" ry="4" fill="var(--bg)" stroke="var(--_inner-stroke)" stroke-width="0.5" />
<text x="88.17500000000001" y="705.35" text-anchor="middle" dy="0.35em" font-size="11" font-weight="400" fill="var(--_text-muted)">none</text>
<rect x="194.80499999999998" y="691.85" width="56.04" height="27" rx="4" ry="4" fill="var(--bg)" stroke="var(--_inner-stroke)" stroke-width="0.5" />
<text x="222.825" y="705.35" text-anchor="middle" dy="0.35em" font-size="11" font-weight="400" fill="var(--_text-muted)">lexical</text>
<rect x="447.27500000000003" y="691.85" width="101.8" height="27" rx="4" ry="4" fill="var(--bg)" stroke="var(--_inner-stroke)" stroke-width="0.5" />
<text x="498.175" y="705.35" text-anchor="middle" dy="0.35em" font-size="11" font-weight="400" fill="var(--_text-muted)">semantic/hybrid</text>
<rect x="420.705" y="1126.6" width="27.44" height="27" rx="4" ry="4" fill="var(--bg)" stroke="var(--_inner-stroke)" stroke-width="0.5" />
<text x="434.425" y="1140.1" text-anchor="middle" dy="0.35em" font-size="11" font-weight="400" fill="var(--_text-muted)">no</text>
<rect x="545.3449999999999" y="1126.6" width="33.16" height="27" rx="4" ry="4" fill="var(--bg)" stroke="var(--_inner-stroke)" stroke-width="0.5" />
<text x="561.925" y="1140.1" text-anchor="middle" dy="0.35em" font-size="11" font-weight="400" fill="var(--_text-muted)">yes</text>
<rect x="808.975" y="543.1" width="44.6" height="27" rx="4" ry="4" fill="var(--bg)" stroke="var(--_inner-stroke)" stroke-width="0.5" />
<text x="831.275" y="556.6" text-anchor="middle" dy="0.35em" font-size="11" font-weight="400" fill="var(--_text-muted)">video</text>
<rect x="739.785" y="691.85" width="38.88" height="27" rx="4" ry="4" fill="var(--bg)" stroke="var(--_inner-stroke)" stroke-width="0.5" />
<text x="759.225" y="705.35" text-anchor="middle" dy="0.35em" font-size="11" font-weight="400" fill="var(--_text-muted)">none</text>
<rect x="794.355" y="691.85" width="199.04000000000002" height="27" rx="4" ry="4" fill="var(--bg)" stroke="var(--_inner-stroke)" stroke-width="0.5" />
<text x="893.875" y="705.35" text-anchor="middle" dy="0.35em" font-size="11" font-weight="400" fill="var(--_text-muted)">&quot;lexical over title/description&quot;</text>
<rect x="928.455" y="543.1" width="56.04" height="27" rx="4" ry="4" fill="var(--bg)" stroke="var(--_inner-stroke)" stroke-width="0.5" />
<text x="956.475" y="556.6" text-anchor="middle" dy="0.35em" font-size="11" font-weight="400" fill="var(--_text-muted)">channel</text>
<rect x="688.9625" y="40" width="124.95" height="36" rx="18" ry="18" fill="var(--_node-fill)" stroke="var(--_node-stroke)" stroke-width="0.75" />
<polygon points="751.4375,116 875.9625,240.525 751.4375,365.05 626.9125,240.525" fill="var(--_node-fill)" stroke="var(--_node-stroke)" stroke-width="0.75" />
<rect x="603.125" y="457.07500000000005" width="146.4" height="36" rx="0" ry="0" fill="var(--_node-fill)" stroke="var(--_node-stroke)" stroke-width="0.75" />
<polygon points="826.55,422.05000000000007 879.5749999999999,475.07500000000005 826.55,528.1 773.525,475.07500000000005" fill="var(--_node-fill)" stroke="var(--_node-stroke)" stroke-width="0.75" />
<polygon points="293.2125000000001,585.1 339.0875000000001,630.975 293.2125000000001,676.85 247.3375000000001,630.975" fill="var(--_node-fill)" stroke="var(--_node-stroke)" stroke-width="0.75" />
<rect x="40.00000000000001" y="904.725" width="96.35000000000001" height="36" rx="0" ry="0" fill="var(--_node-fill)" stroke="var(--_node-stroke)" stroke-width="0.75" />
<rect x="160.35" y="904.725" width="124.95" height="36" rx="0" ry="0" fill="var(--_node-fill)" stroke="var(--_node-stroke)" stroke-width="0.75" />
<polygon points="498.175,733.85 687.05,922.725 498.175,1111.6 309.3,922.725" fill="var(--_node-fill)" stroke="var(--_node-stroke)" stroke-width="0.75" />
<rect x="379.1" y="1168.6" width="110.65" height="36" rx="0" ry="0" fill="var(--_node-fill)" stroke="var(--_node-stroke)" stroke-width="0.75" />
<rect x="513.75" y="1168.6" width="96.35000000000001" height="36" rx="0" ry="0" fill="var(--_node-fill)" stroke="var(--_node-stroke)" stroke-width="0.75" />
<polygon points="831.275,585.1 877.15,630.975 831.275,676.85 785.4,630.975" fill="var(--_node-fill)" stroke="var(--_node-stroke)" stroke-width="0.75" />
<rect x="711.0500000000001" y="904.725" width="96.35000000000001" height="36" rx="0" ry="0" fill="var(--_node-fill)" stroke="var(--_node-stroke)" stroke-width="0.75" />
<rect x="831.4" y="904.725" width="124.95" height="36" rx="0" ry="0" fill="var(--_node-fill)" stroke="var(--_node-stroke)" stroke-width="0.75" />
<rect x="901.15" y="612.975" width="110.65" height="36" rx="0" ry="0" fill="var(--_node-fill)" stroke="var(--_node-stroke)" stroke-width="0.75" />
<text x="751.4375" y="58" text-anchor="middle" dy="0.35em" font-size="13" font-weight="500" fill="var(--_text)">QueryRequest</text>
<text x="751.4375" y="240.525" text-anchor="middle" dy="0.35em" font-size="13" font-weight="500" fill="var(--_text)">project = status_breakdown?</text>
<text x="676.325" y="475.07500000000005" text-anchor="middle" dy="0.35em" font-size="13" font-weight="500" fill="var(--_text)">status_breakdown</text>
<text x="826.55" y="475.07500000000005" text-anchor="middle" dy="0.35em" font-size="13" font-weight="500" fill="var(--_text)">entity?</text>
<text x="293.2125000000001" y="630.975" text-anchor="middle" dy="0.35em" font-size="13" font-weight="500" fill="var(--_text)">mode?</text>
<text x="88.17500000000001" y="922.725" text-anchor="middle" dy="0.35em" font-size="13" font-weight="500" fill="var(--_text)">reject</text>
<text x="222.825" y="922.725" text-anchor="middle" dy="0.35em" font-size="13" font-weight="500" fill="var(--_text)">BM25 lexical</text>
<text x="498.175" y="922.725" text-anchor="middle" dy="0.35em" font-size="13" font-weight="500" fill="var(--_text)">metadata filter&lt;br/&gt;handled by Postgres?</text>
<text x="434.425" y="1186.6" text-anchor="middle" dy="0.35em" font-size="13" font-weight="500" fill="var(--_text)">semantic_search</text>
<text x="561.925" y="1186.6" text-anchor="middle" dy="0.35em" font-size="13" font-weight="500" fill="var(--_text)">hybrid_search</text>
<text x="831.275" y="630.975" text-anchor="middle" dy="0.35em" font-size="13" font-weight="500" fill="var(--_text)">mode?</text>
<text x="759.225" y="922.725" text-anchor="middle" dy="0.35em" font-size="13" font-weight="500" fill="var(--_text)">list_videos</text>
<text x="893.875" y="922.725" text-anchor="middle" dy="0.35em" font-size="13" font-weight="500" fill="var(--_text)">show_video</text>
<text x="956.475" y="630.975" text-anchor="middle" dy="0.35em" font-size="13" font-weight="500" fill="var(--_text)">list_channels</text>
</svg>
