<svg xmlns="http://www.w3.org/2000/svg" viewBox="0 0 922.8999999999999 360" width="922.8999999999999" height="360" style="--bg:#ffffff;--fg:#1f2328;--line:#d1d9e0;--accent:#0969da;--muted:#59636e;background:var(--bg)">
<style>
  @import url('https://fonts.googleapis.com/css2?family=Inter:wght@400;500;600;700&amp;display=swap');
  text { font-family: 'Inter', system-ui, sans-serif; }
  svg {
    /* Derived from --bg and --fg (overridable via --line, --accent, etc.) */
    --_text:          var(--fg);
    --_text-sec:      var(--muted, color-mix(in srgb, var(--fg) 60%, var(--bg)));
    --_text-muted:    var(--muted, color-mix(in srgb, var(--fg) 40%, var(--bg)));
    --_text-faint:    color-mix(in srgb, var(--fg) 25%, var(--bg));
    --_line:          var(--line, color-mix(in srgb, var(--fg) 30%, var(--bg)));
    --_arrow:         var(--accent, color-mix(in srgb, var(--fg) 50%, var(--bg)));
    --_node-fill:     var(--surface, color-mix(in srgb, var(--fg) 3%, var(--bg)));
    --_node-stroke:   var(--border, color-mix(in srgb, var(--fg) 20%, var(--bg)));
    --_group-fill:    var(--bg);
    --_group-hdr:     color-mix(in srgb, var(--fg) 5%, var(--bg));
    --_inner-stroke:  color-mix(in srgb, var(--fg) 12%, var(--bg));
    --_key-badge:     color-mix(in srgb, var(--fg) 10%, var(--bg));
  }
</style>
<defs>
  <marker id="seq-arrow" markerWidth="8" markerHeight="4.8" refX="8" refY="2.4" orient="auto-start-reverse">
    <polygon points="0 0, 8 2.4, 0 4.8" fill="var(--_arrow)" />
  </marker>
  <marker id="seq-arrow-open" markerWidth="8" markerHeight="4.8" refX="8" refY="2.4" orient="auto-start-reverse">
    <polyline points="0 0, 8 2.4, 0 4.8" fill="none" stroke="var(--_arrow)" stroke-width="1" />
  </marker>
</defs>
<line x1="71.025" y1="70" x2="71.025" y2="330" stroke="var(--_line)" stroke-width="0.75" stroke-dasharray="6 4" />
<line x1="293.175" y1="70" x2="293.175" y2="330" stroke="var(--_line)" stroke-width="0.75" stroke-dasharray="6 4" />
<line x1="561.8" y1="70" x2="561.8" y2="330" stroke="var(--_line)" stroke-width="0.75" stroke-dasharray="6 4" />
<line x1="791.0999999999999" y1="70" x2="791.0999999999999" y2="330" stroke="var(--_line)" stroke-width="0.75" stroke-dasharray="6 4" />
<line x1="71.025" y1="90" x2="293.175" y2="90" stroke="var(--_line)" stroke-width="0.75" marker-end="url(#seq-arrow)" />
<text x="182.10000000000002" y="84" text-anchor="middle" font-size="11" font-weight="400" fill="var(--_text-muted)">navigate / submit</text>
<line x1="293.175" y1="130" x2="561.8" y2="130" stroke="var(--_line)" stroke-width="0.75" marker-end="url(#seq-arrow)" />
<text x="427.48749999999995" y="124" text-anchor="middle" font-size="11" font-weight="400" fill="var(--_text-muted)">e.g. searchFind(env, sessionToken, args)</text>
<line x1="561.8" y1="170" x2="791.0999999999999" y2="170" stroke="var(--_line)" stroke-width="0.75" marker-end="url(#seq-arrow)" />
<text x="676.4499999999999" y="164" text-anchor="middle" font-size="11" font-weight="400" fill="var(--_text-muted)">POST /account/search&lt;br/&gt;Authorization: Bearer DASHBOARD_API_TOKEN&lt;br/&gt;x-yutome-account-session: &lt;sessionToken&gt;</text>
<line x1="791.0999999999999" y1="210" x2="561.8" y2="210" stroke="var(--_line)" stroke-width="0.75" stroke-dasharray="6 4" marker-end="url(#seq-arrow)" />
<text x="676.4499999999999" y="204" text-anchor="middle" font-size="11" font-weight="400" fill="var(--_text-muted)">{ ok, result }</text>
<line x1="561.8" y1="250" x2="293.175" y2="250" stroke="var(--_line)" stroke-width="0.75" stroke-dasharray="6 4" marker-end="url(#seq-arrow)" />
<text x="427.48749999999995" y="244" text-anchor="middle" font-size="11" font-weight="400" fill="var(--_text-muted)">typed SearchResult</text>
<line x1="293.175" y1="290" x2="71.025" y2="290" stroke="var(--_line)" stroke-width="0.75" stroke-dasharray="6 4" marker-end="url(#seq-arrow)" />
<text x="182.10000000000002" y="284" text-anchor="middle" font-size="11" font-weight="400" fill="var(--_text-muted)">rendered HTML</text>
<rect x="447.97999999999996" y="134" width="227.64000000000001" height="27" fill="var(--_group-hdr)" stroke="var(--_node-stroke)" stroke-width="0.75" />
<polygon points="669.62,134 675.62,140 669.62,140" fill="var(--_inner-stroke)" />
<text x="561.8" y="147.5" text-anchor="middle" dy="0.35em" font-size="11" font-weight="400" fill="var(--_text-muted)">read sessionToken from request cookie</text>
<rect x="442.25999999999993" y="214" width="239.08" height="27" fill="var(--_group-hdr)" stroke="var(--_node-stroke)" stroke-width="0.75" />
<polygon points="675.3399999999999,214 681.3399999999999,220 675.3399999999999,220" fill="var(--_inner-stroke)" />
<text x="561.8" y="227.5" text-anchor="middle" dy="0.35em" font-size="11" font-weight="400" fill="var(--_text-muted)">zod parseResult → 502 on contract drift</text>
<g transform="translate(53.025000000000006,32) scale(1.5)">
  <path d="M21 12C21 16.9706 16.9706 21 12 21C7.02944 21 3 16.9706 3 12C3 7.02944 7.02944 3 12 3C16.9706 3 21 7.02944 21 12Z" fill="none" stroke="var(--_line)" stroke-width="0.6666666666666666" />
  <path d="M15 10C15 11.6569 13.6569 13 12 13C10.3431 13 9 11.6569 9 10C9 8.34315 10.3431 7 12 7C13.6569 7 15 8.34315 15 10Z" fill="none" stroke="var(--_line)" stroke-width="0.6666666666666666" />
  <path d="M5.62842 18.3563C7.08963 17.0398 9.39997 16 12 16C14.6 16 16.9104 17.0398 18.3716 18.3563" fill="none" stroke="var(--_line)" stroke-width="0.6666666666666666" />
</g>
<text x="71.025" y="84" text-anchor="middle" font-size="13" font-weight="500" fill="var(--_text)">Browser</text>
<rect x="152.05" y="30" width="282.25" height="40" rx="4" ry="4" fill="var(--_node-fill)" stroke="var(--_node-stroke)" stroke-width="1" />
<text x="293.175" y="50" text-anchor="middle" dy="0.35em" font-size="13" font-weight="500" fill="var(--_text)">React Router loader/action (Worker)</text>
<rect x="474.29999999999995" y="30" width="175" height="40" rx="4" ry="4" fill="var(--_node-fill)" stroke="var(--_node-stroke)" stroke-width="1" />
<text x="561.8" y="50" text-anchor="middle" dy="0.35em" font-size="13" font-weight="500" fill="var(--_text)">hosted-api.server.ts</text>
<rect x="689.3" y="30" width="203.60000000000002" height="40" rx="4" ry="4" fill="var(--_node-fill)" stroke="var(--_node-stroke)" stroke-width="1" />
<text x="791.0999999999999" y="50" text-anchor="middle" dy="0.35em" font-size="13" font-weight="500" fill="var(--_text)">Hosted FastAPI (Railway)</text>
</svg>