<svg xmlns="http://www.w3.org/2000/svg" viewBox="0 0 839.76 969" width="839.76" height="969" style="--bg:#ffffff;--fg:#1f2328;--line:#d1d9e0;--accent:#0969da;--muted:#59636e;background:var(--bg)">
<style>
  @import url('https://fonts.googleapis.com/css2?family=Inter:wght@400;500;600;700&amp;display=swap');
  text { font-family: 'Inter', system-ui, sans-serif; }
  svg {
    /* Derived from --bg and --fg (overridable via --line, --accent, etc.) */
    --_text:          var(--fg);
    --_text-sec:      var(--muted, color-mix(in srgb, var(--fg) 60%, var(--bg)));
    --_text-muted:    var(--muted, color-mix(in srgb, var(--fg) 40%, var(--bg)));
    --_text-faint:    color-mix(in srgb, var(--fg) 25%, var(--bg));
    --_line:          var(--line, color-mix(in srgb, var(--fg) 30%, var(--bg)));
    --_arrow:         var(--accent, color-mix(in srgb, var(--fg) 50%, var(--bg)));
    --_node-fill:     var(--surface, color-mix(in srgb, var(--fg) 3%, var(--bg)));
    --_node-stroke:   var(--border, color-mix(in srgb, var(--fg) 20%, var(--bg)));
    --_group-fill:    var(--bg);
    --_group-hdr:     color-mix(in srgb, var(--fg) 5%, var(--bg));
    --_inner-stroke:  color-mix(in srgb, var(--fg) 12%, var(--bg));
    --_key-badge:     color-mix(in srgb, var(--fg) 10%, var(--bg));
  }
</style>
<defs>
  <marker id="arrowhead" markerWidth="8" markerHeight="4.8" refX="8" refY="2.4" orient="auto">
    <polygon points="0 0, 8 2.4, 0 4.8" fill="var(--_arrow)" />
  </marker>
  <marker id="arrowhead-start" markerWidth="8" markerHeight="4.8" refX="0" refY="2.4" orient="auto-start-reverse">
    <polygon points="8 0, 0 2.4, 8 4.8" fill="var(--_arrow)" />
  </marker>
</defs>
<polyline points="508.45000000000005,76 508.45000000000005,116" fill="none" stroke="var(--_line)" stroke-width="0.75" marker-end="url(#arrowhead)" />
<polyline points="508.45000000000005,152 508.45000000000005,180.5 116.775,180.5 116.775,209" fill="none" stroke="var(--_line)" stroke-width="0.75" marker-end="url(#arrowhead)" />
<polyline points="508.45000000000005,152 508.45000000000005,180.5 356.13750000000005,180.5 356.13750000000005,209" fill="none" stroke="var(--_line)" stroke-width="0.75" marker-end="url(#arrowhead)" />
<polyline points="116.775,245 116.775,285" fill="none" stroke="var(--_line)" stroke-width="0.75" marker-end="url(#arrowhead)" />
<polyline points="356.13750000000005,245 356.13750000000005,265 287.175,265 287.175,285" fill="none" stroke="var(--_line)" stroke-width="0.75" marker-end="url(#arrowhead)" />
<polyline points="287.175,321 287.175,361" fill="none" stroke="var(--_line)" stroke-width="0.75" marker-end="url(#arrowhead)" />
<polyline points="287.175,397 287.175,417 345.5,417 345.5,437" fill="none" stroke="var(--_line)" stroke-width="0.75" marker-end="url(#arrowhead)" />
<polyline points="287.175,397 287.175,417 228.85000000000002,417 228.85000000000002,531 242.57500000000002,531" fill="none" stroke="var(--_line)" stroke-width="0.75" marker-end="url(#arrowhead)" />
<polyline points="345.5,473 345.5,531 331.77500000000003,531" fill="none" stroke="var(--_line)" stroke-width="0.75" marker-end="url(#arrowhead)" />
<polyline points="287.175,549 287.175,589" fill="none" stroke="var(--_line)" stroke-width="0.75" marker-end="url(#arrowhead)" />
<polyline points="287.175,625 287.175,665" fill="none" stroke="var(--_line)" stroke-width="0.75" marker-end="url(#arrowhead)" />
<polyline points="287.175,701 287.175,741" fill="none" stroke="var(--_line)" stroke-width="0.75" marker-end="url(#arrowhead)" />
<polyline points="287.175,777 287.175,817" fill="none" stroke="var(--_line)" stroke-width="0.75" marker-end="url(#arrowhead)" />
<polyline points="508.45000000000005,152 508.45000000000005,180.5 472.14,180.5 472.14,227 456.70000000000005,227" fill="none" stroke="var(--_line)" stroke-width="0.75" marker-end="url(#arrowhead)" />
<polyline points="508.45000000000005,209 508.45000000000005,180.5 544.76,180.5 544.76,134 545.9000000000001,134" fill="none" stroke="var(--_line)" stroke-width="0.75" marker-end="url(#arrowhead)" />
<polyline points="508.45000000000005,152 508.45000000000005,180.5 641.96,180.5 641.96,209" fill="none" stroke="var(--_line)" stroke-width="0.75" marker-end="url(#arrowhead)" />
<polyline points="356.13750000000005,245 356.13750000000005,265 449.2850000000001,265 449.2850000000001,285" fill="none" stroke="var(--_line)" stroke-width="0.75" marker-end="url(#arrowhead)" />
<polyline points="508.45000000000005,152 508.45000000000005,180.5 751.585,180.5 751.585,209" fill="none" stroke="var(--_line)" stroke-width="0.75" marker-end="url(#arrowhead)" />
<polyline points="287.175,853 287.175,893" fill="none" stroke="var(--_line)" stroke-width="0.75" marker-end="url(#arrowhead)" />
<polyline points="449.2850000000001,321 449.2850000000001,361" fill="none" stroke="var(--_line)" stroke-width="0.75" marker-end="url(#arrowhead)" />
<polyline points="641.96,245 641.96,285" fill="none" stroke="var(--_line)" stroke-width="0.75" marker-end="url(#arrowhead)" />
<polyline points="751.585,245 751.585,285" fill="none" stroke="var(--_line)" stroke-width="0.75" marker-end="url(#arrowhead)" />
<rect x="65.875" y="167" width="101.8" height="27" rx="4" ry="4" fill="var(--bg)" stroke="var(--_inner-stroke)" stroke-width="0.5" />
<text x="116.775" y="180.5" text-anchor="middle" dy="0.35em" font-size="11" font-weight="400" fill="var(--_text-muted)">discover_source</text>
<rect x="316.67750000000007" y="167" width="78.92" height="27" rx="4" ry="4" fill="var(--bg)" stroke="var(--_inner-stroke)" stroke-width="0.5" />
<text x="356.13750000000005" y="180.5" text-anchor="middle" dy="0.35em" font-size="11" font-weight="400" fill="var(--_text-muted)">index_video</text>
<rect x="415.52" y="167" width="113.24000000000001" height="27" rx="4" ry="4" fill="var(--bg)" stroke="var(--_inner-stroke)" stroke-width="0.5" />
<text x="472.14" y="180.5" text-anchor="middle" dy="0.35em" font-size="11" font-weight="400" fill="var(--_text-muted)">transient failure</text>
<rect x="576.76" y="167" width="130.4" height="27" rx="4" ry="4" fill="var(--bg)" stroke="var(--_inner-stroke)" stroke-width="0.5" />
<text x="641.96" y="180.5" text-anchor="middle" dy="0.35em" font-size="11" font-weight="400" fill="var(--_text-muted)">metering gate denied</text>
<circle cx="508.45000000000005" cy="58" r="16" fill="var(--_text)" stroke="none" />
<rect x="471.00000000000006" y="116" width="74.9" height="36" rx="6" ry="6" fill="var(--_node-fill)" stroke="var(--_node-stroke)" stroke-width="0.75" />
<rect x="61.45" y="209" width="110.65" height="36" rx="6" ry="6" fill="var(--_node-fill)" stroke="var(--_node-stroke)" stroke-width="0.75" />
<rect x="307.96250000000003" y="209" width="96.35000000000001" height="36" rx="6" ry="6" fill="var(--_node-fill)" stroke="var(--_node-stroke)" stroke-width="0.75" />
<rect x="40" y="285" width="153.55" height="36" rx="6" ry="6" fill="var(--_node-fill)" stroke="var(--_node-stroke)" stroke-width="0.75" />
<rect x="217.55" y="285" width="139.25" height="36" rx="6" ry="6" fill="var(--_node-fill)" stroke="var(--_node-stroke)" stroke-width="0.75" />
<rect x="203.25" y="361" width="167.85000000000002" height="36" rx="6" ry="6" fill="var(--_node-fill)" stroke="var(--_node-stroke)" stroke-width="0.75" />
<rect x="250.85" y="437" width="189.3" height="36" rx="6" ry="6" fill="var(--_node-fill)" stroke="var(--_node-stroke)" stroke-width="0.75" />
<rect x="242.57500000000002" y="513" width="89.2" height="36" rx="6" ry="6" fill="var(--_node-fill)" stroke="var(--_node-stroke)" stroke-width="0.75" />
<rect x="239" y="589" width="96.35000000000001" height="36" rx="6" ry="6" fill="var(--_node-fill)" stroke="var(--_node-stroke)" stroke-width="0.75" />
<rect x="224.70000000000002" y="665" width="124.95" height="36" rx="6" ry="6" fill="var(--_node-fill)" stroke="var(--_node-stroke)" stroke-width="0.75" />
<rect x="210.4" y="741" width="153.55" height="36" rx="6" ry="6" fill="var(--_node-fill)" stroke="var(--_node-stroke)" stroke-width="0.75" />
<rect x="239" y="817" width="96.35000000000001" height="36" rx="6" ry="6" fill="var(--_node-fill)" stroke="var(--_node-stroke)" stroke-width="0.75" />
<rect x="456.70000000000005" y="209" width="103.5" height="36" rx="6" ry="6" fill="var(--_node-fill)" stroke="var(--_node-stroke)" stroke-width="0.75" />
<rect x="604.51" y="209" width="74.9" height="36" rx="6" ry="6" fill="var(--_node-fill)" stroke="var(--_node-stroke)" stroke-width="0.75" />
<rect x="411.8350000000001" y="285" width="74.9" height="36" rx="6" ry="6" fill="var(--_node-fill)" stroke="var(--_node-stroke)" stroke-width="0.75" />
<rect x="703.4100000000001" y="209" width="96.35000000000001" height="36" rx="6" ry="6" fill="var(--_node-fill)" stroke="var(--_node-stroke)" stroke-width="0.75" />
<circle cx="287.175" cy="911" r="16" fill="none" stroke="var(--_text)" stroke-width="1.5" />
<circle cx="287.175" cy="911" r="12" fill="var(--_text)" stroke="none" />
<circle cx="449.2850000000001" cy="379" r="16" fill="none" stroke="var(--_text)" stroke-width="1.5" />
<circle cx="449.2850000000001" cy="379" r="12" fill="var(--_text)" stroke="none" />
<circle cx="641.96" cy="303" r="16" fill="none" stroke="var(--_text)" stroke-width="1.5" />
<circle cx="641.96" cy="303" r="12" fill="var(--_text)" stroke="none" />
<circle cx="751.585" cy="303" r="16" fill="none" stroke="var(--_text)" stroke-width="1.5" />
<circle cx="751.585" cy="303" r="12" fill="var(--_text)" stroke="none" />

<text x="508.45000000000005" y="134" text-anchor="middle" dy="0.35em" font-size="13" font-weight="500" fill="var(--_text)">queued</text>
<text x="116.775" y="227" text-anchor="middle" dy="0.35em" font-size="13" font-weight="500" fill="var(--_text)">discovering</text>
<text x="356.13750000000005" y="227" text-anchor="middle" dy="0.35em" font-size="13" font-weight="500" fill="var(--_text)">preparing</text>
<text x="116.775" y="303" text-anchor="middle" dy="0.35em" font-size="13" font-weight="500" fill="var(--_text)">queued_video_jobs</text>
<text x="287.175" y="303" text-anchor="middle" dy="0.35em" font-size="13" font-weight="500" fill="var(--_text)">reserving_usage</text>
<text x="287.175" y="379" text-anchor="middle" dy="0.35em" font-size="13" font-weight="500" fill="var(--_text)">fetching_transcript</text>
<text x="345.5" y="455" text-anchor="middle" dy="0.35em" font-size="13" font-weight="500" fill="var(--_text)">fallback_transcription</text>
<text x="287.175" y="531" text-anchor="middle" dy="0.35em" font-size="13" font-weight="500" fill="var(--_text)">cleaning</text>
<text x="287.175" y="607" text-anchor="middle" dy="0.35em" font-size="13" font-weight="500" fill="var(--_text)">embedding</text>
<text x="287.175" y="683" text-anchor="middle" dy="0.35em" font-size="13" font-weight="500" fill="var(--_text)">writing_index</text>
<text x="287.175" y="759" text-anchor="middle" dy="0.35em" font-size="13" font-weight="500" fill="var(--_text)">reconciling_usage</text>
<text x="287.175" y="835" text-anchor="middle" dy="0.35em" font-size="13" font-weight="500" fill="var(--_text)">succeeded</text>
<text x="508.45000000000005" y="227" text-anchor="middle" dy="0.35em" font-size="13" font-weight="500" fill="var(--_text)">retry_wait</text>
<text x="641.96" y="227" text-anchor="middle" dy="0.35em" font-size="13" font-weight="500" fill="var(--_text)">denied</text>
<text x="449.2850000000001" y="303" text-anchor="middle" dy="0.35em" font-size="13" font-weight="500" fill="var(--_text)">failed</text>
<text x="751.585" y="227" text-anchor="middle" dy="0.35em" font-size="13" font-weight="500" fill="var(--_text)">cancelled</text>




</svg>