<svg xmlns="http://www.w3.org/2000/svg" viewBox="0 0 1395.0875 2284.2999999999997" width="1395.0875" height="2284.2999999999997" style="--bg:#ffffff;--fg:#1f2328;--line:#d1d9e0;--accent:#0969da;--muted:#59636e;background:var(--bg)">
<style>
  @import url('https://fonts.googleapis.com/css2?family=Inter:wght@400;500;600;700&amp;display=swap');
  text { font-family: 'Inter', system-ui, sans-serif; }
  svg {
    /* Derived from --bg and --fg (overridable via --line, --accent, etc.) */
    --_text:          var(--fg);
    --_text-sec:      var(--muted, color-mix(in srgb, var(--fg) 60%, var(--bg)));
    --_text-muted:    var(--muted, color-mix(in srgb, var(--fg) 40%, var(--bg)));
    --_text-faint:    color-mix(in srgb, var(--fg) 25%, var(--bg));
    --_line:          var(--line, color-mix(in srgb, var(--fg) 30%, var(--bg)));
    --_arrow:         var(--accent, color-mix(in srgb, var(--fg) 50%, var(--bg)));
    --_node-fill:     var(--surface, color-mix(in srgb, var(--fg) 3%, var(--bg)));
    --_node-stroke:   var(--border, color-mix(in srgb, var(--fg) 20%, var(--bg)));
    --_group-fill:    var(--bg);
    --_group-hdr:     color-mix(in srgb, var(--fg) 5%, var(--bg));
    --_inner-stroke:  color-mix(in srgb, var(--fg) 12%, var(--bg));
    --_key-badge:     color-mix(in srgb, var(--fg) 10%, var(--bg));
  }
</style>
<defs>
  <marker id="arrowhead" markerWidth="8" markerHeight="4.8" refX="8" refY="2.4" orient="auto">
    <polygon points="0 0, 8 2.4, 0 4.8" fill="var(--_arrow)" />
  </marker>
  <marker id="arrowhead-start" markerWidth="8" markerHeight="4.8" refX="0" refY="2.4" orient="auto-start-reverse">
    <polygon points="8 0, 0 2.4, 8 4.8" fill="var(--_arrow)" />
  </marker>
</defs>
<polyline points="288.4125,76 288.4125,116" fill="none" stroke="var(--_line)" stroke-width="0.75" marker-end="url(#arrowhead)" />
<polyline points="241.00319788120524,260.4406978812052 241.00319788120524,336.35 166.825,336.35 166.825,439.20000000000005" fill="none" stroke="var(--_line)" stroke-width="0.75" marker-end="url(#arrowhead)" />
<polyline points="335.8218021187948,260.44069788120527 335.8218021187948,336.35 410,336.35 410,364.85" fill="none" stroke="var(--_line)" stroke-width="0.75" marker-end="url(#arrowhead)" />
<polyline points="353.2000617161059,492.75006171610596 353.2000617161059,578.0500000000001 216.91250000000002,578.0500000000001 216.91250000000002,823.9000000000001" fill="none" stroke="var(--_line)" stroke-width="0.75" marker-end="url(#arrowhead)" />
<polyline points="466.7999382838941,492.75006171610596 466.7999382838941,578.0500000000001 603.0875,578.0500000000001 603.0875,606.5500000000001" fill="none" stroke="var(--_line)" stroke-width="0.75" marker-end="url(#arrowhead)" />
<polyline points="523.0821887019606,997.2446887019607 523.0821887019606,1105.75 467.2,1105.75 467.2,1233.625" fill="none" stroke="var(--_line)" stroke-width="0.75" marker-end="url(#arrowhead)" />
<polyline points="683.0928112980394,997.2446887019607 683.0928112980394,1105.75 738.975,1105.75 738.975,1134.25" fill="none" stroke="var(--_line)" stroke-width="0.75" marker-end="url(#arrowhead)" />
<polyline points="682.7557393517278,1312.7807393517278 682.7557393517278,1397.5 604.875,1397.5 604.875,1514.65" fill="none" stroke="var(--_line)" stroke-width="0.75" marker-end="url(#arrowhead)" />
<polyline points="795.1942606482722,1312.7807393517278 795.1942606482722,1397.5 873.075,1397.5 873.075,1426" fill="none" stroke="var(--_line)" stroke-width="0.75" marker-end="url(#arrowhead)" />
<polyline points="820.3157229985512,1586.5407229985512 820.3157229985512,1667.8 740.7625,1667.8 740.7625,1784.95" fill="none" stroke="var(--_line)" stroke-width="0.75" marker-end="url(#arrowhead)" />
<polyline points="925.8342770014489,1586.5407229985512 925.8342770014489,1667.8 1005.3875,1667.8 1005.3875,1696.3" fill="none" stroke="var(--_line)" stroke-width="0.75" marker-end="url(#arrowhead)" />
<polyline points="954.4912859007833,1858.7037859007833 954.4912859007833,1938.1 882.0125,1938.1 882.0125,2040.9499999999998" fill="none" stroke="var(--_line)" stroke-width="0.75" marker-end="url(#arrowhead)" />
<polyline points="1056.2837140992167,1858.7037859007833 1056.2837140992167,1938.1 1128.7625,1938.1 1128.7625,1966.6" fill="none" stroke="var(--_line)" stroke-width="0.75" marker-end="url(#arrowhead)" />
<polyline points="1081.2427771640891,2103.780277164089 1081.2427771640891,2179.7999999999997 1000.6625,2179.7999999999997 1000.6625,2208.2999999999997" fill="none" stroke="var(--_line)" stroke-width="0.75" marker-end="url(#arrowhead)" />
<polyline points="1176.282222835911,2103.780277164089 1176.282222835911,2179.7999999999997 1256.8625000000002,2179.7999999999997 1256.8625000000002,2208.2999999999997" fill="none" stroke="var(--_line)" stroke-width="0.75" marker-end="url(#arrowhead)" />
<rect x="153.105" y="322.85" width="27.44" height="27" rx="4" ry="4" fill="var(--bg)" stroke="var(--_inner-stroke)" stroke-width="0.5" />
<text x="166.825" y="336.35" text-anchor="middle" dy="0.35em" font-size="11" font-weight="400" fill="var(--_text-muted)">no</text>
<rect x="393.42" y="322.85" width="33.16" height="27" rx="4" ry="4" fill="var(--bg)" stroke="var(--_inner-stroke)" stroke-width="0.5" />
<text x="410" y="336.35" text-anchor="middle" dy="0.35em" font-size="11" font-weight="400" fill="var(--_text-muted)">yes</text>
<rect x="203.19250000000002" y="564.5500000000001" width="27.44" height="27" rx="4" ry="4" fill="var(--bg)" stroke="var(--_inner-stroke)" stroke-width="0.5" />
<text x="216.91250000000002" y="578.0500000000001" text-anchor="middle" dy="0.35em" font-size="11" font-weight="400" fill="var(--_text-muted)">no</text>
<rect x="586.5074999999999" y="564.5500000000001" width="33.16" height="27" rx="4" ry="4" fill="var(--bg)" stroke="var(--_inner-stroke)" stroke-width="0.5" />
<text x="603.0875" y="578.0500000000001" text-anchor="middle" dy="0.35em" font-size="11" font-weight="400" fill="var(--_text-muted)">yes</text>
<rect x="453.47999999999996" y="1092.25" width="27.44" height="27" rx="4" ry="4" fill="var(--bg)" stroke="var(--_inner-stroke)" stroke-width="0.5" />
<text x="467.2" y="1105.75" text-anchor="middle" dy="0.35em" font-size="11" font-weight="400" fill="var(--_text-muted)">no</text>
<rect x="722.395" y="1092.25" width="33.16" height="27" rx="4" ry="4" fill="var(--bg)" stroke="var(--_inner-stroke)" stroke-width="0.5" />
<text x="738.975" y="1105.75" text-anchor="middle" dy="0.35em" font-size="11" font-weight="400" fill="var(--_text-muted)">yes</text>
<rect x="591.155" y="1384" width="27.44" height="27" rx="4" ry="4" fill="var(--bg)" stroke="var(--_inner-stroke)" stroke-width="0.5" />
<text x="604.875" y="1397.5" text-anchor="middle" dy="0.35em" font-size="11" font-weight="400" fill="var(--_text-muted)">no</text>
<rect x="856.495" y="1384" width="33.16" height="27" rx="4" ry="4" fill="var(--bg)" stroke="var(--_inner-stroke)" stroke-width="0.5" />
<text x="873.075" y="1397.5" text-anchor="middle" dy="0.35em" font-size="11" font-weight="400" fill="var(--_text-muted)">yes</text>
<rect x="727.0425" y="1654.3" width="27.44" height="27" rx="4" ry="4" fill="var(--bg)" stroke="var(--_inner-stroke)" stroke-width="0.5" />
<text x="740.7625" y="1667.8" text-anchor="middle" dy="0.35em" font-size="11" font-weight="400" fill="var(--_text-muted)">no</text>
<rect x="988.8075" y="1654.3" width="33.16" height="27" rx="4" ry="4" fill="var(--bg)" stroke="var(--_inner-stroke)" stroke-width="0.5" />
<text x="1005.3875" y="1667.8" text-anchor="middle" dy="0.35em" font-size="11" font-weight="400" fill="var(--_text-muted)">yes</text>
<rect x="868.2925" y="1924.6" width="27.44" height="27" rx="4" ry="4" fill="var(--bg)" stroke="var(--_inner-stroke)" stroke-width="0.5" />
<text x="882.0125" y="1938.1" text-anchor="middle" dy="0.35em" font-size="11" font-weight="400" fill="var(--_text-muted)">no</text>
<rect x="1112.1825000000001" y="1924.6" width="33.16" height="27" rx="4" ry="4" fill="var(--bg)" stroke="var(--_inner-stroke)" stroke-width="0.5" />
<text x="1128.7625" y="1938.1" text-anchor="middle" dy="0.35em" font-size="11" font-weight="400" fill="var(--_text-muted)">yes</text>
<rect x="986.9425" y="2166.2999999999997" width="27.44" height="27" rx="4" ry="4" fill="var(--bg)" stroke="var(--_inner-stroke)" stroke-width="0.5" />
<text x="1000.6625" y="2179.7999999999997" text-anchor="middle" dy="0.35em" font-size="11" font-weight="400" fill="var(--_text-muted)">no</text>
<rect x="1240.2825000000003" y="2166.2999999999997" width="33.16" height="27" rx="4" ry="4" fill="var(--bg)" stroke="var(--_inner-stroke)" stroke-width="0.5" />
<text x="1256.8625000000002" y="2179.7999999999997" text-anchor="middle" dy="0.35em" font-size="11" font-weight="400" fill="var(--_text-muted)">yes</text>
<rect x="247.38750000000002" y="40" width="82.05000000000001" height="36" rx="18" ry="18" fill="var(--_node-fill)" stroke="var(--_node-stroke)" stroke-width="0.75" />
<polygon points="288.4125,116 384.33750000000003,211.925 288.4125,307.85 192.4875,211.925" fill="var(--_node-fill)" stroke="var(--_node-stroke)" stroke-width="0.75" />
<rect x="39.999999999999986" y="439.20000000000005" width="253.65" height="36" rx="0" ry="0" fill="var(--_node-fill)" stroke="var(--_node-stroke)" stroke-width="0.75" />
<polygon points="410,364.85 502.35,457.20000000000005 410,549.5500000000001 317.65,457.20000000000005" fill="var(--_node-fill)" stroke="var(--_node-stroke)" stroke-width="0.75" />
<rect x="90.08750000000002" y="823.9000000000001" width="253.65" height="36" rx="0" ry="0" fill="var(--_node-fill)" stroke="var(--_node-stroke)" stroke-width="0.75" />
<polygon points="603.0875,606.5500000000001 838.4375,841.9000000000001 603.0875,1077.25 367.73749999999995,841.9000000000001" fill="var(--_node-fill)" stroke="var(--_node-stroke)" stroke-width="0.75" />
<rect x="336.79999999999995" y="1233.625" width="260.8" height="36" rx="0" ry="0" fill="var(--_node-fill)" stroke="var(--_node-stroke)" stroke-width="0.75" />
<polygon points="738.975,1134.25 856.35,1251.625 738.975,1369 621.6,1251.625" fill="var(--_node-fill)" stroke="var(--_node-stroke)" stroke-width="0.75" />
<rect x="467.325" y="1514.65" width="275.1" height="36" rx="0" ry="0" fill="var(--_node-fill)" stroke="var(--_node-stroke)" stroke-width="0.75" />
<polygon points="873.075,1426 979.725,1532.65 873.075,1639.3000000000002 766.4250000000001,1532.65" fill="var(--_node-fill)" stroke="var(--_node-stroke)" stroke-width="0.75" />
<rect x="606.7875" y="1784.95" width="267.95000000000005" height="36" rx="0" ry="0" fill="var(--_node-fill)" stroke="var(--_node-stroke)" stroke-width="0.75" />
<polygon points="1005.3875,1696.3 1112.0375000000001,1802.95 1005.3875,1909.6000000000001 898.7375000000001,1802.95" fill="var(--_node-fill)" stroke="var(--_node-stroke)" stroke-width="0.75" />
<rect x="751.6125000000001" y="2040.9499999999998" width="260.8" height="36" rx="0" ry="0" fill="var(--_node-fill)" stroke="var(--_node-stroke)" stroke-width="0.75" />
<polygon points="1128.7625,1966.6 1221.1125,2058.95 1128.7625,2151.2999999999997 1036.4125000000001,2058.95" fill="var(--_node-fill)" stroke="var(--_node-stroke)" stroke-width="0.75" />
<rect x="866.6875" y="2208.2999999999997" width="267.95000000000005" height="36" rx="0" ry="0" fill="var(--_node-fill)" stroke="var(--_node-stroke)" stroke-width="0.75" />
<rect x="1158.6375000000003" y="2208.2999999999997" width="196.45000000000002" height="36" rx="18" ry="18" fill="var(--_node-fill)" stroke="var(--_node-stroke)" stroke-width="0.75" />
<text x="288.4125" y="58" text-anchor="middle" dy="0.35em" font-size="13" font-weight="500" fill="var(--_text)">reserve</text>
<text x="288.4125" y="211.925" text-anchor="middle" dy="0.35em" font-size="13" font-weight="500" fill="var(--_text)">allocation present?</text>
<text x="166.825" y="457.20000000000005" text-anchor="middle" dy="0.35em" font-size="13" font-weight="500" fill="var(--_text)">deny: allocation_missing · hard</text>
<text x="410" y="457.20000000000005" text-anchor="middle" dy="0.35em" font-size="13" font-weight="500" fill="var(--_text)">workspace matches?</text>
<text x="216.91250000000002" y="841.9000000000001" text-anchor="middle" dy="0.35em" font-size="13" font-weight="500" fill="var(--_text)">deny: workspace_mismatch · hard</text>
<text x="603.0875" y="841.9000000000001" text-anchor="middle" dy="0.35em" font-size="13" font-weight="500" fill="var(--_text)">credential_mode≠disabled&lt;br/&gt;and status∉ disabled,invalid?</text>
<text x="467.19999999999993" y="1251.625" text-anchor="middle" dy="0.35em" font-size="13" font-weight="500" fill="var(--_text)">deny: allocation_disabled · hard</text>
<text x="738.975" y="1251.625" text-anchor="middle" dy="0.35em" font-size="13" font-weight="500" fill="var(--_text)">policy.operation_allowed?</text>
<text x="604.875" y="1532.65" text-anchor="middle" dy="0.35em" font-size="13" font-weight="500" fill="var(--_text)">deny: operation_not_allowed · hard</text>
<text x="873.075" y="1532.65" text-anchor="middle" dy="0.35em" font-size="13" font-weight="500" fill="var(--_text)">estimate ≤ hard limit?</text>
<text x="740.7625" y="1802.95" text-anchor="middle" dy="0.35em" font-size="13" font-weight="500" fill="var(--_text)">deny: usage_limit_exceeded · hard</text>
<text x="1005.3875" y="1802.95" text-anchor="middle" dy="0.35em" font-size="13" font-weight="500" fill="var(--_text)">estimate ≤ soft limit?</text>
<text x="882.0125" y="2058.95" text-anchor="middle" dy="0.35em" font-size="13" font-weight="500" fill="var(--_text)">deny: soft_limit_exceeded · SOFT</text>
<text x="1128.7625" y="2058.95" text-anchor="middle" dy="0.35em" font-size="13" font-weight="500" fill="var(--_text)">balance has units?</text>
<text x="1000.6625" y="2226.2999999999997" text-anchor="middle" dy="0.35em" font-size="13" font-weight="500" fill="var(--_text)">deny: insufficient_balance · hard</text>
<text x="1256.8625000000002" y="2226.2999999999997" text-anchor="middle" dy="0.35em" font-size="13" font-weight="500" fill="var(--_text)">allow → status=reserved</text>
</svg>